<!-- Generated by IcoMoon.io -->
<svg version="1.1" xmlns="http://www.w3.org/2000/svg" width="128" height="128" viewBox="0 0 128 128">
<title>react</title>
<path fill="#61dafb" d="M75.408 64c0 6.3-5.108 11.408-11.408 11.408s-11.408-5.108-11.408-11.408c0-6.3 5.108-11.408 11.408-11.408s11.408 5.108 11.408 11.408z"></path>
<path fill="#61dafb" d="M32.043 86.693l-2.517-0.64c-18.763-4.741-29.525-12.789-29.525-22.075s10.763-17.333 29.525-22.075l2.517-0.635 0.709 2.496c2.178 7.442 4.651 13.771 7.596 19.828l-0.327-0.745 0.539 1.136-0.539 1.136c-2.626 5.318-5.099 11.647-7.045 18.203l-0.224 0.88-0.709 2.491zM28.357 47.733c-14.261 4.005-23.013 10.133-23.013 16.245 0 6.107 8.752 12.235 23.013 16.245 2.047-6.479 4.185-11.859 6.649-17.053l-0.345 0.807c-2.125-4.393-4.262-9.772-6.044-15.311l-0.26-0.935zM95.957 86.693l-0.709-2.501c-2.175-7.435-4.649-13.763-7.599-19.815l0.325 0.738-0.539-1.136 0.539-1.136c2.624-5.315 5.098-11.644 7.049-18.199l0.226-0.884 0.709-2.496 2.523 0.635c18.757 4.741 29.52 12.789 29.52 22.080s-10.763 17.333-29.52 22.075l-2.523 0.64zM93.339 63.979c2.56 5.541 4.677 10.987 6.304 16.245 14.267-4.011 23.013-10.139 23.013-16.245 0-6.112-8.752-12.235-23.013-16.245-2.043 6.474-4.18 11.854-6.646 17.046l0.342-0.801z"></path>
<path fill="#61dafb" d="M28.32 47.707l-0.709-2.491c-5.275-18.592-3.675-31.915 4.389-36.565 7.909-4.565 20.608 0.827 33.915 14.485l1.813 1.861-1.813 1.861c-4.584 4.76-8.829 9.927-12.646 15.413l-0.271 0.411-0.72 1.029-1.253 0.107c-7.499 0.603-14.384 1.755-21.058 3.44l0.871-0.186-2.517 0.635zM38.432 12.347c-1.429 0-2.693 0.309-3.76 0.923-5.301 3.056-6.24 13.68-2.587 28.016 4.841-1.14 10.723-2.084 16.719-2.633l0.524-0.039c3.576-5.056 7.168-9.481 11.026-13.657l-0.082 0.090c-8.32-8.101-16.197-12.699-21.84-12.699zM89.573 120.944c-0.005 0-0.005 0 0 0-7.6 0-17.36-5.723-27.488-16.123l-1.813-1.861 1.813-1.861c4.583-4.761 8.825-9.93 12.641-15.417l0.271-0.412 0.72-1.029 1.248-0.107c7.5-0.599 14.39-1.75 21.067-3.434l-0.87 0.186 2.517-0.635 0.715 2.496c5.264 18.581 3.669 31.909-4.395 36.555-1.797 1.034-3.951 1.644-6.248 1.644-0.063 0-0.126-0.001-0.189-0.001l0.010 0zM67.728 102.912c8.32 8.101 16.197 12.699 21.84 12.699h0.005c1.424 0 2.693-0.309 3.755-0.923 5.301-3.056 6.245-13.685 2.587-28.021-4.846 1.142-10.73 2.086-16.728 2.634l-0.52 0.038c-3.571 5.059-7.162 9.486-11.020 13.662l0.081-0.089z"></path>
<path fill="#61dafb" d="M99.68 47.707l-2.517-0.635c-5.811-1.504-12.7-2.657-19.755-3.225l-0.442-0.029-1.248-0.107-0.72-1.029c-4.084-5.898-8.326-11.065-12.949-15.863l0.037 0.039-1.813-1.861 1.813-1.861c13.301-13.653 25.995-19.045 33.915-14.485 8.064 4.651 9.664 17.973 4.395 36.56l-0.715 2.496zM78.667 38.613c6.091 0.555 11.877 1.456 17.248 2.672 3.659-14.336 2.715-24.96-2.587-28.016-5.269-3.045-15.173 1.621-25.6 11.776 3.773 4.086 7.364 8.511 10.662 13.158l0.276 0.41zM38.432 120.944c-0.055 0.001-0.12 0.001-0.184 0.001-2.297 0-4.451-0.61-6.309-1.677l0.062 0.033c-8.064-4.645-9.664-17.968-4.389-36.555l0.704-2.496 2.517 0.635c6.16 1.552 12.955 2.645 20.187 3.248l1.253 0.107 0.715 1.029c4.090 5.899 8.334 11.067 12.956 15.869l-0.038-0.040 1.813 1.861-1.813 1.861c-10.123 10.4-19.883 16.123-27.472 16.123zM32.085 86.667c-3.659 14.336-2.715 24.965 2.587 28.021 5.264 3.003 15.163-1.627 25.6-11.776-3.773-4.088-7.365-8.514-10.666-13.162l-0.278-0.412c-6.516-0.585-12.398-1.529-18.138-2.845l0.895 0.173z"></path>
<path fill="#61dafb" d="M64 90.016c-4.389 0-8.901-0.192-13.419-0.565l-1.253-0.107-0.72-1.029c-2.177-3.071-4.557-6.764-6.787-10.557l-0.413-0.76c-1.81-3.032-3.883-6.926-5.798-10.911l-0.421-0.971-0.533-1.136 0.533-1.136c2.334-4.955 4.408-8.849 6.632-12.645l-0.413 0.763c2.208-3.819 4.635-7.627 7.2-11.317l0.72-1.029 1.253-0.107c4.020-0.362 8.697-0.568 13.421-0.568s9.401 0.206 14.021 0.61l-0.599-0.042 1.248 0.107 0.715 1.029c4.706 6.663 9.178 14.269 13.008 22.24l0.416 0.96 0.539 1.136-0.539 1.136c-4.232 8.926-8.704 16.532-13.757 23.698l0.333-0.498-0.715 1.029-1.248 0.107c-4.517 0.373-9.035 0.565-13.424 0.565zM52.283 84.235c7.893 0.592 15.541 0.592 23.44 0 4.015-5.781 7.913-12.417 11.308-19.344l0.404-0.912c-3.787-7.832-7.687-14.468-12.048-20.761l0.331 0.505c-3.507-0.283-7.594-0.444-11.717-0.444s-8.21 0.161-12.252 0.478l0.535-0.034c-4.034 5.789-7.934 12.425-11.321 19.358l-0.396 0.898c3.804 7.84 7.703 14.476 12.056 20.774l-0.339-0.518z"></path>
</svg>
